<?xml version="1.0" encoding="UTF-8"?>
<svg xmlns="http://www.w3.org/2000/svg" width="1900" height="1050" viewBox="0 0 1900 1050">
<rect width="100%" height="100%" fill="white"/>
<style>text{font-family: Times, "Times New Roman", serif; fill: #000;} .axis{stroke:#000;stroke-width:3;} .tick{stroke:#000;stroke-width:2;} .bar{stroke:#000;stroke-width:4;stroke-linecap:square;} .label{font-size:24px;font-weight:700;} .xtick{font-size:30px;} .ytick{font-size:32px;} .unit{font-size:34px;}</style>
<line class="axis" x1="150" y1="70" x2="150" y2="935.0" />
<line class="axis" x1="150" y1="935.0" x2="1820" y2="935.0" />
<path d="M 150 48 L 141 74 L 159 74 Z" fill="#000"/>
<text class="unit" x="72" y="98">GeV</text>
<line class="tick" x1="150" y1="799.3" x2="168" y2="799.3" />
<text class="ytick" x="80" y="810.3">0.40</text>
<line class="tick" x1="150" y1="663.6" x2="168" y2="663.6" />
<text class="ytick" x="80" y="674.6">0.80</text>
<line class="tick" x1="150" y1="527.9" x2="168" y2="527.9" />
<text class="ytick" x="80" y="538.9">1.20</text>
<line class="tick" x1="150" y1="392.3" x2="168" y2="392.3" />
<text class="ytick" x="80" y="403.3">1.60</text>
<line class="tick" x1="150" y1="256.6" x2="168" y2="256.6" />
<text class="ytick" x="80" y="267.6">2.00</text>
<line class="tick" x1="150" y1="120.9" x2="168" y2="120.9" />
<text class="ytick" x="80" y="131.9">2.40</text>
<line class="tick" x1="222.0" y1="935.0" x2="222.0" y2="913.0" />
<text class="xtick" x="222.0" y="981.0" text-anchor="middle">0-+</text>
<line class="tick" x1="336.1" y1="935.0" x2="336.1" y2="913.0" />
<text class="xtick" x="336.1" y="981.0" text-anchor="middle">1--</text>
<line class="tick" x1="450.3" y1="935.0" x2="450.3" y2="913.0" />
<text class="xtick" x="450.3" y="981.0" text-anchor="middle">1+-</text>
<line class="tick" x1="564.4" y1="935.0" x2="564.4" y2="913.0" />
<text class="xtick" x="564.4" y="981.0" text-anchor="middle">0++</text>
<line class="tick" x1="678.6" y1="935.0" x2="678.6" y2="913.0" />
<text class="xtick" x="678.6" y="981.0" text-anchor="middle">1++</text>
<line class="tick" x1="792.7" y1="935.0" x2="792.7" y2="913.0" />
<text class="xtick" x="792.7" y="981.0" text-anchor="middle">2++</text>
<line class="tick" x1="906.9" y1="935.0" x2="906.9" y2="913.0" />
<text class="xtick" x="906.9" y="981.0" text-anchor="middle">2-+</text>
<line class="tick" x1="1021.0" y1="935.0" x2="1021.0" y2="913.0" />
<text class="xtick" x="1021.0" y="981.0" text-anchor="middle">2--</text>
<line class="tick" x1="1135.1" y1="935.0" x2="1135.1" y2="913.0" />
<text class="xtick" x="1135.1" y="981.0" text-anchor="middle">3--</text>
<line class="tick" x1="1249.3" y1="935.0" x2="1249.3" y2="913.0" />
<text class="xtick" x="1249.3" y="981.0" text-anchor="middle">3+-</text>
<line class="tick" x1="1363.4" y1="935.0" x2="1363.4" y2="913.0" />
<text class="xtick" x="1363.4" y="981.0" text-anchor="middle">3++</text>
<line class="tick" x1="1477.6" y1="935.0" x2="1477.6" y2="913.0" />
<text class="xtick" x="1477.6" y="981.0" text-anchor="middle">4++</text>
<line class="tick" x1="1591.7" y1="935.0" x2="1591.7" y2="913.0" />
<text class="xtick" x="1591.7" y="981.0" text-anchor="middle">4-+</text>
<line class="tick" x1="1705.9" y1="935.0" x2="1705.9" y2="913.0" />
<text class="xtick" x="1705.9" y="981.0" text-anchor="middle">4--</text>
<line class="tick" x1="1820.0" y1="935.0" x2="1820.0" y2="913.0" />
<text class="xtick" x="1820.0" y="981.0" text-anchor="middle">5--</text>
<line class="bar" x1="184.0" y1="884.1" x2="260.0" y2="884.1" />
<text class="label" x="244.0" y="874.1" text-anchor="middle"><tspan>1</tspan><tspan baseline-shift="super" font-size="70%">1</tspan><tspan>S</tspan><tspan baseline-shift="sub" font-size="70%">0</tspan><tspan>(0.15)</tspan></text>
<line class="bar" x1="184.0" y1="494.0" x2="260.0" y2="494.0" />
<text class="label" x="246.0" y="484.0" text-anchor="middle"><tspan>2</tspan><tspan baseline-shift="super" font-size="70%">1</tspan><tspan>S</tspan><tspan baseline-shift="sub" font-size="70%">0</tspan><tspan>(1.30)</tspan></text>
<line class="bar" x1="184.0" y1="297.3" x2="260.0" y2="297.3" />
<text class="label" x="256.0" y="287.3" text-anchor="middle"><tspan>3</tspan><tspan baseline-shift="super" font-size="70%">1</tspan><tspan>S</tspan><tspan baseline-shift="sub" font-size="70%">0</tspan><tspan>(1.88)</tspan></text>
<line class="bar" x1="298.1" y1="673.8" x2="374.1" y2="673.8" />
<text class="label" x="336.1" y="663.8" text-anchor="middle"><tspan>1</tspan><tspan baseline-shift="super" font-size="70%">3</tspan><tspan>S</tspan><tspan baseline-shift="sub" font-size="70%">1</tspan><tspan>(0.77)</tspan></text>
<line class="bar" x1="298.1" y1="443.1" x2="374.1" y2="443.1" />
<text class="label" x="336.1" y="433.1" text-anchor="middle"><tspan>2</tspan><tspan baseline-shift="super" font-size="70%">3</tspan><tspan>S</tspan><tspan baseline-shift="sub" font-size="70%">1</tspan><tspan>(1.45)</tspan></text>
<line class="bar" x1="298.1" y1="371.9" x2="374.1" y2="371.9" />
<text class="label" x="336.1" y="361.9" text-anchor="middle"><tspan>1</tspan><tspan baseline-shift="super" font-size="70%">3</tspan><tspan>D</tspan><tspan baseline-shift="sub" font-size="70%">1</tspan><tspan>(1.66)</tspan></text>
<line class="bar" x1="298.1" y1="256.6" x2="374.1" y2="256.6" />
<text class="label" x="336.1" y="246.6" text-anchor="middle"><tspan>3</tspan><tspan baseline-shift="super" font-size="70%">3</tspan><tspan>S</tspan><tspan baseline-shift="sub" font-size="70%">1</tspan><tspan>(2.00)</tspan></text>
<line class="bar" x1="298.1" y1="205.7" x2="374.1" y2="205.7" />
<text class="label" x="336.1" y="195.7" text-anchor="middle"><tspan>2</tspan><tspan baseline-shift="super" font-size="70%">3</tspan><tspan>D</tspan><tspan baseline-shift="sub" font-size="70%">1</tspan><tspan>(2.15)</tspan></text>
<line class="bar" x1="412.3" y1="521.2" x2="488.3" y2="521.2" />
<text class="label" x="450.3" y="513.2" text-anchor="middle"><tspan>1</tspan><tspan baseline-shift="super" font-size="70%">1</tspan><tspan>P</tspan><tspan baseline-shift="sub" font-size="70%">1</tspan><tspan>(1.22)</tspan></text>
<line class="bar" x1="412.3" y1="331.2" x2="488.3" y2="331.2" />
<text class="label" x="450.3" y="323.2" text-anchor="middle"><tspan>2</tspan><tspan baseline-shift="super" font-size="70%">1</tspan><tspan>P</tspan><tspan baseline-shift="sub" font-size="70%">1</tspan><tspan>(1.78)</tspan></text>
<line class="bar" x1="526.4" y1="565.3" x2="602.4" y2="565.3" />
<text class="label" x="564.4" y="557.3" text-anchor="middle"><tspan>1</tspan><tspan baseline-shift="super" font-size="70%">3</tspan><tspan>P</tspan><tspan baseline-shift="sub" font-size="70%">0</tspan><tspan>(1.09)</tspan></text>
<line class="bar" x1="526.4" y1="331.2" x2="602.4" y2="331.2" />
<text class="label" x="564.4" y="323.2" text-anchor="middle"><tspan>2</tspan><tspan baseline-shift="super" font-size="70%">3</tspan><tspan>P</tspan><tspan baseline-shift="sub" font-size="70%">0</tspan><tspan>(1.78)</tspan></text>
<line class="bar" x1="640.6" y1="514.4" x2="716.6" y2="514.4" />
<text class="label" x="678.6" y="506.4" text-anchor="middle"><tspan>1</tspan><tspan baseline-shift="super" font-size="70%">3</tspan><tspan>P</tspan><tspan baseline-shift="sub" font-size="70%">1</tspan><tspan>(1.24)</tspan></text>
<line class="bar" x1="640.6" y1="317.6" x2="716.6" y2="317.6" />
<text class="label" x="678.6" y="309.6" text-anchor="middle"><tspan>2</tspan><tspan baseline-shift="super" font-size="70%">3</tspan><tspan>P</tspan><tspan baseline-shift="sub" font-size="70%">1</tspan><tspan>(1.82)</tspan></text>
<line class="bar" x1="754.7" y1="490.6" x2="830.7" y2="490.6" />
<text class="label" x="810.7" y="480.6" text-anchor="middle"><tspan>1</tspan><tspan baseline-shift="super" font-size="70%">3</tspan><tspan>P</tspan><tspan baseline-shift="sub" font-size="70%">2</tspan><tspan>(1.31)</tspan></text>
<line class="bar" x1="754.7" y1="317.6" x2="830.7" y2="317.6" />
<text class="label" x="830.7" y="307.6" text-anchor="middle"><tspan>2</tspan><tspan baseline-shift="super" font-size="70%">3</tspan><tspan>P</tspan><tspan baseline-shift="sub" font-size="70%">2</tspan><tspan>(1.82)</tspan></text>
<line class="bar" x1="754.7" y1="239.6" x2="830.7" y2="239.6" />
<text class="label" x="792.7" y="229.6" text-anchor="middle"><tspan>1</tspan><tspan baseline-shift="super" font-size="70%">3</tspan><tspan>F</tspan><tspan baseline-shift="sub" font-size="70%">2</tspan><tspan>(2.05)</tspan></text>
<line class="bar" x1="868.9" y1="365.1" x2="944.9" y2="365.1" />
<text class="label" x="906.9" y="355.1" text-anchor="middle"><tspan>1</tspan><tspan baseline-shift="super" font-size="70%">1</tspan><tspan>D</tspan><tspan baseline-shift="sub" font-size="70%">2</tspan><tspan>(1.68)</tspan></text>
<line class="bar" x1="868.9" y1="212.5" x2="944.9" y2="212.5" />
<text class="label" x="906.9" y="202.5" text-anchor="middle"><tspan>2</tspan><tspan baseline-shift="super" font-size="70%">1</tspan><tspan>D</tspan><tspan baseline-shift="sub" font-size="70%">2</tspan><tspan>(2.13)</tspan></text>
<line class="bar" x1="983.0" y1="358.3" x2="1059.0" y2="358.3" />
<text class="label" x="1021.0" y="348.3" text-anchor="middle"><tspan>1</tspan><tspan baseline-shift="super" font-size="70%">3</tspan><tspan>D</tspan><tspan baseline-shift="sub" font-size="70%">2</tspan><tspan>(1.70)</tspan></text>
<line class="bar" x1="983.0" y1="205.7" x2="1059.0" y2="205.7" />
<text class="label" x="1021.0" y="195.7" text-anchor="middle"><tspan>2</tspan><tspan baseline-shift="super" font-size="70%">3</tspan><tspan>D</tspan><tspan baseline-shift="sub" font-size="70%">2</tspan><tspan>(2.15)</tspan></text>
<line class="bar" x1="1097.1" y1="365.1" x2="1173.1" y2="365.1" />
<text class="label" x="1135.1" y="355.1" text-anchor="middle"><tspan>1</tspan><tspan baseline-shift="super" font-size="70%">3</tspan><tspan>D</tspan><tspan baseline-shift="sub" font-size="70%">3</tspan><tspan>(1.68)</tspan></text>
<line class="bar" x1="1097.1" y1="212.5" x2="1173.1" y2="212.5" />
<text class="label" x="1135.1" y="202.5" text-anchor="middle"><tspan>2</tspan><tspan baseline-shift="super" font-size="70%">3</tspan><tspan>D</tspan><tspan baseline-shift="sub" font-size="70%">3</tspan><tspan>(2.13)</tspan></text>
<line class="bar" x1="1097.1" y1="131.1" x2="1173.1" y2="131.1" />
<text class="label" x="1135.1" y="121.1" text-anchor="middle"><tspan>1</tspan><tspan baseline-shift="super" font-size="70%">3</tspan><tspan>G</tspan><tspan baseline-shift="sub" font-size="70%">3</tspan><tspan>(2.37)</tspan></text>
<line class="bar" x1="1211.3" y1="246.4" x2="1287.3" y2="246.4" />
<text class="label" x="1249.3" y="238.4" text-anchor="middle"><tspan>1</tspan><tspan baseline-shift="super" font-size="70%">1</tspan><tspan>F</tspan><tspan baseline-shift="sub" font-size="70%">3</tspan><tspan>(2.03)</tspan></text>
<line class="bar" x1="1325.4" y1="239.6" x2="1401.4" y2="239.6" />
<text class="label" x="1363.4" y="231.6" text-anchor="middle"><tspan>1</tspan><tspan baseline-shift="super" font-size="70%">3</tspan><tspan>F</tspan><tspan baseline-shift="sub" font-size="70%">3</tspan><tspan>(2.05)</tspan></text>
<line class="bar" x1="1439.6" y1="253.2" x2="1515.6" y2="253.2" />
<text class="label" x="1477.6" y="245.2" text-anchor="middle"><tspan>1</tspan><tspan baseline-shift="super" font-size="70%">3</tspan><tspan>F</tspan><tspan baseline-shift="sub" font-size="70%">4</tspan><tspan>(2.01)</tspan></text>
<line class="bar" x1="1553.7" y1="144.6" x2="1629.7" y2="144.6" />
<text class="label" x="1567.7" y="134.6" text-anchor="middle"><tspan>1</tspan><tspan baseline-shift="super" font-size="70%">1</tspan><tspan>G</tspan><tspan baseline-shift="sub" font-size="70%">4</tspan><tspan>(2.33)</tspan></text>
<line class="bar" x1="1667.9" y1="141.2" x2="1743.9" y2="141.2" />
<text class="label" x="1705.9" y="133.2" text-anchor="middle"><tspan>1</tspan><tspan baseline-shift="super" font-size="70%">3</tspan><tspan>G</tspan><tspan baseline-shift="sub" font-size="70%">4</tspan><tspan>(2.34)</tspan></text>
<line class="bar" x1="1782.0" y1="154.8" x2="1858.0" y2="154.8" />
<text class="label" x="1838.0" y="144.8" text-anchor="middle"><tspan>1</tspan><tspan baseline-shift="super" font-size="70%">3</tspan><tspan>G</tspan><tspan baseline-shift="sub" font-size="70%">5</tspan><tspan>(2.30)</tspan></text>
<text x="950.0" y="1025" text-anchor="middle" font-size="24">Fig. 3 replot from digitized Godfrey-Isgur isovector model labels only</text>
</svg>
